<svg width="24" height="24" viewBox="0 0 24 24" fill="none" xmlns="http://www.w3.org/2000/svg">
<g id="Frame">
<path id="Vector" d="M5.41797 15.7608V13.8804" stroke="#37D281" stroke-width="1.22229" stroke-linecap="round" stroke-linejoin="round"/>
<path id="Vector_2" d="M12 20.462V18.5815" stroke="#37D281" stroke-width="1.22229" stroke-linecap="round" stroke-linejoin="round"/>
<path id="Vector_3" d="M18.582 12.94V11.0596" stroke="#E85858" stroke-width="1.22229" stroke-linecap="round" stroke-linejoin="round"/>
<path id="Vector_4" d="M5.41797 8.23885V6.3584" stroke="#37D281" stroke-width="1.22229" stroke-linecap="round" stroke-linejoin="round"/>
<path id="Vector_5" d="M12 12.94V11.0596" stroke="#37D281" stroke-width="1.22229" stroke-linecap="round" stroke-linejoin="round"/>
<path id="Vector_6" d="M18.582 5.41853V3.53809" stroke="#E85858" stroke-width="1.22229" stroke-linecap="round" stroke-linejoin="round"/>
<path id="Vector_7" d="M7.29996 8.80315V13.3162C7.29996 13.6278 7.04739 13.8804 6.73583 13.8804H4.1032C3.79163 13.8804 3.53906 13.6278 3.53906 13.3162V8.80315C3.53906 8.49159 3.79163 8.23901 4.1032 8.23901H6.73583C7.04739 8.23901 7.29996 8.49159 7.29996 8.80315Z" stroke="#37D281" stroke-width="1.22229" stroke-linecap="round" stroke-linejoin="round"/>
<path id="Vector_8" d="M13.882 13.5043V18.0174C13.882 18.329 13.6294 18.5815 13.3179 18.5815H10.6852C10.3736 18.5815 10.1211 18.329 10.1211 18.0174V13.5043C10.1211 13.1927 10.3736 12.9402 10.6852 12.9402H13.3179C13.6294 12.9402 13.882 13.1927 13.882 13.5043Z" stroke="#37D281" stroke-width="1.22229" stroke-linecap="round" stroke-linejoin="round"/>
<path id="Vector_9" d="M20.464 5.98235V10.4954C20.464 10.807 20.2115 11.0596 19.8999 11.0596H17.2673C16.9557 11.0596 16.7031 10.807 16.7031 10.4954V5.98235C16.7031 5.67079 16.9557 5.41821 17.2673 5.41821H19.8999C20.2115 5.41821 20.464 5.67079 20.464 5.98235Z" stroke="#E85858" stroke-width="1.22229" stroke-linecap="round" stroke-linejoin="round"/>
</g>
</svg>
