<svg width="46" height="45" viewBox="0 0 46 45" fill="none" xmlns="http://www.w3.org/2000/svg">
<rect x="1" width="45" height="45" rx="22.5" fill="#343842"/>
<g filter="url(#filter0_f_287_1356)">
<path d="M27.168 29.5C28.7256 29.5 29.5045 29.5 30.0846 29.165C30.4647 28.9456 30.7803 28.63 30.9997 28.25C31.3346 27.6698 31.3346 26.891 31.3346 25.3333C31.3346 23.7756 31.3346 22.9968 30.9997 22.4166C30.7803 22.0365 30.4647 21.721 30.0846 21.5015C29.5045 21.1666 28.7256 21.1666 27.168 21.1666H18.8346C17.2769 21.1666 16.4981 21.1666 15.918 21.5015C15.5379 21.721 15.2223 22.0365 15.0029 22.4166C14.668 22.9968 14.668 23.7756 14.668 25.3333C14.668 26.891 14.668 27.6698 15.0029 28.25C15.2223 28.63 15.5379 28.9456 15.918 29.165C16.4981 29.5 17.2769 29.5 18.8346 29.5H27.168Z" stroke="#ED4747" stroke-width="1.25" stroke-linecap="round" stroke-linejoin="round"/>
<path d="M26.3346 17C25.5202 15.978 24.3287 15.3334 23.0013 15.3334C21.6739 15.3334 20.4824 15.978 19.668 17" stroke="#ED4747" stroke-width="1.25" stroke-linecap="round" stroke-linejoin="round"/>
<path d="M24.6654 18.6667C24.2582 18.1557 23.6624 17.8334 22.9987 17.8334C22.3349 17.8334 21.7392 18.1557 21.332 18.6667" stroke="#ED4747" stroke-width="1.25" stroke-linecap="round" stroke-linejoin="round"/>
<path d="M17.168 23.6666V27H18.418M28.8346 27H27.168V25.3333M27.168 25.3333V23.6666H28.8346M27.168 25.3333H28.418M20.5013 23.6666V27M22.5846 23.6666L23.8346 27L25.0846 23.6666" stroke="#ED4747" stroke-width="1.25" stroke-linecap="round" stroke-linejoin="round"/>
</g>
<path d="M27.668 29C29.2256 29 30.0045 29 30.5846 28.665C30.9647 28.4456 31.2803 28.13 31.4997 27.75C31.8346 27.1698 31.8346 26.391 31.8346 24.8333C31.8346 23.2756 31.8346 22.4968 31.4997 21.9166C31.2803 21.5365 30.9647 21.221 30.5846 21.0015C30.0045 20.6666 29.2256 20.6666 27.668 20.6666H19.3346C17.7769 20.6666 16.9981 20.6666 16.418 21.0015C16.0379 21.221 15.7223 21.5365 15.5029 21.9166C15.168 22.4968 15.168 23.2756 15.168 24.8333C15.168 26.391 15.168 27.1698 15.5029 27.75C15.7223 28.13 16.0379 28.4456 16.418 28.665C16.9981 29 17.7769 29 19.3346 29H27.668Z" stroke="#ED4747" stroke-width="1.25" stroke-linecap="round" stroke-linejoin="round"/>
<path d="M26.8346 16.5C26.0202 15.478 24.8287 14.8334 23.5013 14.8334C22.1739 14.8334 20.9824 15.478 20.168 16.5" stroke="#ED4747" stroke-width="1.25" stroke-linecap="round" stroke-linejoin="round"/>
<path d="M25.1654 18.1667C24.7582 17.6557 24.1624 17.3334 23.4987 17.3334C22.8349 17.3334 22.2392 17.6557 21.832 18.1667" stroke="#ED4747" stroke-width="1.25" stroke-linecap="round" stroke-linejoin="round"/>
<path d="M17.668 23.1666V26.5H18.918M29.3346 26.5H27.668V24.8333M27.668 24.8333V23.1666H29.3346M27.668 24.8333H28.918M21.0013 23.1666V26.5M23.0846 23.1666L24.3346 26.5L25.5846 23.1666" stroke="#ED4747" stroke-width="1.25" stroke-linecap="round" stroke-linejoin="round"/>
<defs>
<filter id="filter0_f_287_1356" x="-0.7" y="-0.7" width="47.4" height="47.4" filterUnits="userSpaceOnUse" color-interpolation-filters="sRGB">
<feFlood flood-opacity="0" result="BackgroundImageFix"/>
<feBlend mode="normal" in="SourceGraphic" in2="BackgroundImageFix" result="shape"/>
<feGaussianBlur stdDeviation="6.85" result="effect1_foregroundBlur_287_1356"/>
</filter>
</defs>
</svg>
