<svg width="300" height="402" viewBox="0 0 300 402" fill="none" xmlns="http://www.w3.org/2000/svg">
<path fill-rule="evenodd" clip-rule="evenodd" d="M-24.3638 -3.05176e-05V401.5H-23.3588V-3.05176e-05H-24.3638ZM6.28851 -3.05176e-05V401.5H7.29352V377.003H36.9428V401.5H37.9478V377.003H67.5952V401.5H68.6002V377.003L98.2475 377.003V401.5H99.2525V377.003H128.9V401.5H129.905V377.003H159.552V401.5H160.557V377.003H190.206V401.5H191.211V377.003H220.859V401.5H221.864V377.003L251.511 377.003V401.5H252.516V377.003H300V375.997H252.516V347.003H300V345.997H252.516V317.003H300V315.997H252.516V286.003H300V284.997H252.516V256.003H300V254.997H252.516V226.003H300V224.997H252.516V196.003H300V194.997H252.516V166.003H300V164.997H252.516V136.003H300V134.997H252.516V106.003H300V104.997H252.516V75.0025H300V73.9975H252.516V45.0025H300V43.9975H252.516V15.0025H300V13.9975H252.516V-3.05176e-05H251.511V13.9975H221.864V-3.05176e-05H220.859V13.9975H191.211V-3.05176e-05H190.206V13.9975H160.557V-3.05176e-05H159.552V13.9975H129.905V-3.05176e-05H128.9V13.9975H99.2525V-3.05176e-05H98.2475V13.9975H68.6002V-3.05176e-05H67.5952V13.9975H37.9478V-3.05176e-05H36.9428V13.9975H7.29352V-3.05176e-05H6.28851ZM7.29352 15.0025H36.9428V43.9975H7.29352V15.0025ZM37.9478 15.0025H67.5952V43.9975H37.9478V15.0025ZM68.6002 15.0025H98.2475V43.9975H68.6002V15.0025ZM99.2525 15.0025H128.9V43.9975H99.2525V15.0025ZM129.905 15.0025H159.552V43.9975H129.905V15.0025ZM160.557 15.0025H190.206V43.9975H160.557V15.0025ZM191.211 15.0025H220.859V43.9975H191.211V15.0025ZM221.864 15.0025H251.511V43.9975H221.864V15.0025ZM251.511 73.9975V45.0025H221.864V73.9975H251.511ZM220.859 73.9975V45.0025H191.211V73.9975H220.859ZM190.206 73.9975V45.0025H160.557V73.9975H190.206ZM159.552 73.9975V45.0025H129.905V73.9975H159.552ZM128.9 73.9975V45.0025H99.2525V73.9975H128.9ZM98.2475 73.9975V45.0025H68.6002V73.9975H98.2475ZM67.5952 73.9975V45.0025H37.9478V73.9975H67.5952ZM36.9428 73.9975V45.0025H7.29352V73.9975H36.9428ZM7.29352 75.0025H36.9428V104.997H7.29352V75.0025ZM37.9478 75.0025H67.5952V104.997H37.9478V75.0025ZM68.6002 75.0025H98.2475V104.997H68.6002V75.0025ZM99.2525 75.0025H128.9V104.997H99.2525V75.0025ZM129.905 75.0025H159.552V104.997H129.905V75.0025ZM160.557 75.0025H190.206V104.997H160.557V75.0025ZM191.211 75.0025H220.859V104.997H191.211V75.0025ZM221.864 75.0025H251.511V104.997H221.864V75.0025ZM251.511 134.997V106.003H221.864V134.997H251.511ZM220.859 134.997V106.003H191.211V134.997H220.859ZM190.206 134.997V106.003H160.557V134.997H190.206ZM159.552 134.997V106.003H129.905V134.997H159.552ZM128.9 134.997V106.003H99.2525V134.997H128.9ZM98.2475 134.997V106.003H68.6002V134.997H98.2475ZM67.5952 134.997V106.003H37.9478V134.997H67.5952ZM36.9428 134.997V106.003H7.29352V134.997H36.9428ZM7.29352 136.003H36.9428V164.997H7.29352V136.003ZM37.9478 136.003H67.5952V164.997H37.9478V136.003ZM68.6002 136.003H98.2475V164.997H68.6002V136.003ZM99.2525 136.003H128.9V164.997H99.2525V136.003ZM129.905 136.003H159.552V164.997H129.905V136.003ZM160.557 136.003H190.206V164.997H160.557V136.003ZM191.211 136.003H220.859V164.997H191.211V136.003ZM221.864 136.003H251.511V164.997H221.864V136.003ZM251.511 194.997V166.003H221.864V194.997H251.511ZM220.859 194.997V166.003H191.211V194.997H220.859ZM190.206 194.997V166.003H160.557V194.997H190.206ZM159.552 194.997V166.003H129.905V194.997H159.552ZM128.9 194.997V166.003H99.2525V194.997H128.9ZM98.2475 194.997V166.003H68.6002V194.997H98.2475ZM67.5952 194.997V166.003H37.9478V194.997H67.5952ZM36.9428 194.997V166.003H7.29352V194.997H36.9428ZM7.29352 196.003H36.9428V224.998H7.29352V196.003ZM37.9478 196.003H67.5952V224.998H37.9478V196.003ZM68.6002 196.003H98.2475V224.998H68.6002V196.003ZM99.2525 196.003H128.9V224.998H99.2525V196.003ZM129.905 196.003H159.552V224.997L129.905 224.998V196.003ZM160.557 196.003H190.206V224.997H160.557V196.003ZM191.211 196.003H220.859V224.997H191.211V196.003ZM221.864 196.003H251.511V224.997H221.864V196.003ZM251.511 254.997V226.003H221.864V254.997H251.511ZM220.859 254.997V226.003H191.211V254.997H220.859ZM190.206 254.997V226.003H160.557V254.997H190.206ZM159.552 254.997V226.003L129.905 226.003V254.998L159.552 254.997ZM128.9 254.998V226.003H99.2525V254.998H128.9ZM98.2475 254.998V226.003H68.6002V254.998H98.2475ZM67.5952 254.998V226.003H37.9478V254.998H67.5952ZM36.9428 254.998V226.003H7.29352V254.998H36.9428ZM7.29352 256.003H36.9428V284.998H7.29352V256.003ZM37.9478 256.003H67.5952V284.998H37.9478V256.003ZM68.6002 256.003H98.2475V284.998H68.6002V256.003ZM99.2525 256.003H128.9V284.998H99.2525V256.003ZM129.905 256.003L159.552 256.003V284.997L129.905 284.998V256.003ZM160.557 256.003H190.206V284.997H160.557V256.003ZM191.211 256.003H220.859V284.997H191.211V256.003ZM221.864 256.003H251.511V284.997H221.864V256.003ZM251.511 315.997V286.003H221.864V315.997H251.511ZM220.859 315.997V286.003H191.211V315.997H220.859ZM190.206 315.997V286.003H160.557V315.997H190.206ZM159.552 315.997V286.003L129.905 286.003V315.998L159.552 315.997ZM128.9 315.998V286.003H99.2525V315.998H128.9ZM98.2475 315.998V286.003H68.6002V315.998H98.2475ZM67.5952 315.998V286.003H37.9478V315.998H67.5952ZM36.9428 315.998V286.003H7.29352V315.998H36.9428ZM7.29352 317.003H36.9428V345.998H7.29352V317.003ZM37.9478 317.003H67.5952V345.998H37.9478V317.003ZM68.6002 317.003H98.2475V345.998L68.6002 345.998V317.003ZM99.2525 317.003H128.9V345.998H99.2525V317.003ZM129.905 317.003L159.552 317.003V345.998H129.905V317.003ZM160.557 317.003H190.206V345.998H160.557V317.003ZM191.211 317.003H220.859V345.998H191.211V317.003ZM221.864 317.003H251.511V345.997L221.864 345.998V317.003ZM251.511 375.997V347.003L221.864 347.003V375.998L251.511 375.997ZM220.859 375.998V347.003H191.211V375.998H220.859ZM190.206 375.998V347.003H160.557V375.998H190.206ZM159.552 375.998V347.003H129.905V375.998H159.552ZM128.9 375.998V347.003H99.2525V375.998H128.9ZM98.2475 375.998V347.003L68.6002 347.003V375.998L98.2475 375.998ZM67.5952 375.998V347.003H37.9478V375.998H67.5952ZM36.9428 375.998V347.003H7.29352V375.998H36.9428Z" fill="url(#paint0_linear_62_663)"/>
<defs>
<linearGradient id="paint0_linear_62_663" x1="-51" y1="485" x2="300" y2="247.499" gradientUnits="userSpaceOnUse">
<stop stop-color="#FCD535" stop-opacity="0.55"/>
<stop offset="1" stop-color="#462577" stop-opacity="0.01"/>
</linearGradient>
</defs>
</svg>
