<svg width="300" height="398" viewBox="0 0 300 398" fill="none" xmlns="http://www.w3.org/2000/svg">
<path fill-rule="evenodd" clip-rule="evenodd" d="M-24.3638 397.5V-4H-23.3588V397.5H-24.3638ZM6.28851 397.5V-4H7.29352V20.4975L36.9428 20.4975V-4H37.9478V20.4975H67.5952V-4H68.6002V20.4975L98.2475 20.4975V-4H99.2525V20.4975L128.9 20.4975V-4H129.905V20.4975L159.552 20.4975V-4H160.557V20.4975H190.206V-4H191.211V20.4975L220.859 20.4975V-4H221.864V20.4975L251.511 20.4975V-4H252.516V20.4975L300 20.4975V21.5025L252.516 21.5025V50.4975L300 50.4975V51.5025H252.516V80.4975H300V81.5025H252.516V111.497H300V112.503H252.516V141.497H300V142.503H252.516V171.497H300V172.503H252.516V201.497H300V202.503H252.516V231.497H300V232.503H252.516V261.497H300V262.503H252.516V291.497H300V292.503H252.516V322.497H300V323.503H252.516V352.497H300V353.503H252.516V382.497H300V383.503H252.516V397.5H251.511V383.503H221.864V397.5H220.859V383.503H191.211V397.5H190.206V383.503H160.557V397.5H159.552V383.503H129.905V397.5H128.9V383.503H99.2525V397.5H98.2475V383.503H68.6002V397.5H67.5952V383.503H37.9478V397.5H36.9428V383.503H7.29352V397.5H6.28851ZM7.29352 382.497H36.9428V353.503H7.29352V382.497ZM37.9478 382.497H67.5952V353.503H37.9478V382.497ZM68.6002 382.497H98.2475V353.503H68.6002V382.497ZM99.2525 382.497H128.9V353.503H99.2525V382.497ZM129.905 382.497H159.552V353.503H129.905V382.497ZM160.557 382.497H190.206V353.503H160.557V382.497ZM191.211 382.497H220.859V353.503H191.211V382.497ZM221.864 382.497H251.511V353.503H221.864V382.497ZM251.511 323.503V352.497H221.864V323.503H251.511ZM220.859 323.503V352.497H191.211V323.503H220.859ZM190.206 323.503V352.497H160.557V323.503H190.206ZM159.552 323.503V352.497H129.905V323.503H159.552ZM128.9 323.503V352.497H99.2525V323.503H128.9ZM98.2475 323.503V352.497H68.6002V323.503H98.2475ZM67.5952 323.503V352.497H37.9478V323.503H67.5952ZM36.9428 323.503V352.497H7.29352V323.503H36.9428ZM7.29352 322.497H36.9428V292.503H7.29352V322.497ZM37.9478 322.497H67.5952V292.503H37.9478V322.497ZM68.6002 322.497H98.2475V292.503H68.6002V322.497ZM99.2525 322.497H128.9V292.503H99.2525V322.497ZM129.905 322.497H159.552V292.503H129.905V322.497ZM160.557 322.497H190.206V292.503H160.557V322.497ZM191.211 322.497H220.859V292.503H191.211V322.497ZM221.864 322.497H251.511V292.503H221.864V322.497ZM251.511 262.503V291.497H221.864V262.503H251.511ZM220.859 262.503V291.497H191.211V262.503H220.859ZM190.206 262.503V291.497H160.557V262.503H190.206ZM159.552 262.503V291.497H129.905V262.503H159.552ZM128.9 262.503V291.497H99.2525V262.503H128.9ZM98.2475 262.503V291.497H68.6002V262.503H98.2475ZM67.5952 262.503V291.497H37.9478V262.503H67.5952ZM36.9428 262.503V291.497H7.29352V262.503H36.9428ZM7.29352 261.497H36.9428V232.502H7.29352V261.497ZM37.9478 261.497H67.5952V232.502H37.9478V261.497ZM68.6002 261.497H98.2475V232.502H68.6002V261.497ZM99.2525 261.497H128.9V232.502H99.2525V261.497ZM129.905 261.497H159.552V232.503L129.905 232.502V261.497ZM160.557 261.497H190.206V232.503H160.557V261.497ZM191.211 261.497H220.859V232.503H191.211V261.497ZM221.864 261.497H251.511V232.503H221.864V261.497ZM251.511 202.503V231.497H221.864V202.503H251.511ZM220.859 202.503V231.497H191.211V202.503H220.859ZM190.206 202.503V231.497H160.557V202.503H190.206ZM159.552 202.503V231.497L129.905 231.497V202.502L159.552 202.503ZM128.9 202.502V231.497H99.2525V202.502H128.9ZM98.2475 202.502V231.497H68.6002V202.502H98.2475ZM67.5952 202.502V231.497H37.9478V202.502H67.5952ZM36.9428 202.502V231.497H7.29352V202.502H36.9428ZM7.29352 201.497H36.9428V172.502H7.29352V201.497ZM37.9478 201.497H67.5952V172.502H37.9478V201.497ZM68.6002 201.497H98.2475V172.502H68.6002V201.497ZM99.2525 201.497H128.9V172.502H99.2525V201.497ZM129.905 201.497L159.552 201.497V172.503L129.905 172.502V201.497ZM160.557 201.497H190.206V172.503H160.557V201.497ZM191.211 201.497H220.859V172.503H191.211V201.497ZM221.864 201.497H251.511V172.503H221.864V201.497ZM251.511 142.503V171.497H221.864V142.503H251.511ZM220.859 142.503V171.497H191.211V142.503H220.859ZM190.206 142.503V171.497H160.557V142.503H190.206ZM159.552 142.503V171.497L129.905 171.497V142.502L159.552 142.503ZM128.9 142.502V171.497H99.2525V142.502H128.9ZM98.2475 142.502V171.497H68.6002V142.502H98.2475ZM67.5952 142.502V171.497H37.9478V142.502H67.5952ZM36.9428 142.502V171.497H7.29352V142.502H36.9428ZM7.29352 141.497H36.9428V112.502H7.29352V141.497ZM37.9478 141.497H67.5952V112.502H37.9478V141.497ZM68.6002 141.497H98.2475V112.502L68.6002 112.502V141.497ZM99.2525 141.497H128.9V112.502H99.2525V141.497ZM129.905 141.497L159.552 141.497V112.502H129.905V141.497ZM160.557 141.497H190.206V112.502H160.557V141.497ZM191.211 141.497H220.859V112.502H191.211V141.497ZM221.864 141.497H251.511V112.503L221.864 112.502V141.497ZM251.511 81.5025V111.497L221.864 111.497V81.5025L251.511 81.5025ZM220.859 81.5025V111.497H191.211V81.5025H220.859ZM190.206 81.5025V111.497H160.557V81.5025H190.206ZM159.552 81.5025V111.497H129.905V81.5025H159.552ZM128.9 81.5025V111.497H99.2525V81.5025H128.9ZM98.2475 81.5025V111.497L68.6002 111.497V81.5025L98.2475 81.5025ZM67.5952 81.5025V111.497H37.9478V81.5025H67.5952ZM36.9428 81.5025V111.497H7.29352V81.5025H36.9428ZM7.29352 80.4975H36.9428V51.5025H7.29352V80.4975ZM37.9478 80.4975H67.5952V51.5025L37.9478 51.5025V80.4975ZM68.6002 80.4975L98.2475 80.4975V51.5025H68.6002V80.4975ZM99.2525 80.4975H128.9V51.5025H99.2525V80.4975ZM129.905 80.4975H159.552V51.5025L129.905 51.5025V80.4975ZM160.557 80.4975H190.206V51.5025H160.557V80.4975ZM191.211 80.4975H220.859V51.5025H191.211V80.4975ZM221.864 80.4975L251.511 80.4975V51.5025L221.864 51.5025V80.4975ZM251.511 21.5025V50.4975H221.864V21.5025L251.511 21.5025ZM220.859 21.5025V50.4975H191.211V21.5025H220.859ZM190.206 21.5025V50.4975L160.557 50.4975V21.5025L190.206 21.5025ZM159.552 21.5025V50.4975H129.905V21.5025H159.552ZM128.9 21.5025V50.4975L99.2525 50.4975V21.5025H128.9ZM98.2475 21.5025V50.4975H68.6002V21.5025L98.2475 21.5025ZM67.5952 21.5025V50.4975L37.9478 50.4975V21.5025H67.5952ZM36.9428 21.5025V50.4975H7.29352V21.5025L36.9428 21.5025Z" fill="url(#paint0_linear_62_639)"/>
<defs>
<linearGradient id="paint0_linear_62_639" x1="-51" y1="-20.5" x2="300" y2="217.001" gradientUnits="userSpaceOnUse">
<stop stop-color="#FCD535" stop-opacity="0.55"/>
<stop offset="1" stop-color="#462577" stop-opacity="0.01"/>
</linearGradient>
</defs>
</svg>
