<svg width="20" height="21" viewBox="0 0 20 21" fill="none" xmlns="http://www.w3.org/2000/svg">
<g id="Frame">
<path id="Vector" d="M17.5013 10.5V10.9167C17.5013 14.6486 17.5013 16.5146 16.342 17.674C15.1826 18.8333 13.3166 18.8333 9.58464 18.8333C5.85269 18.8333 3.98671 18.8333 2.82734 17.674C1.66797 16.5146 1.66797 14.6486 1.66797 10.9167C1.66797 7.18472 1.66797 5.31874 2.82734 4.15937C3.98671 3 5.85269 3 9.58464 3H10.0013" stroke="white" stroke-width="1.25" stroke-linecap="round" stroke-linejoin="round"/>
<path id="Vector_2" d="M18.3333 5.08329C18.3333 6.69413 17.0275 7.99996 15.4167 7.99996C13.8058 7.99996 12.5 6.69413 12.5 5.08329C12.5 3.47246 13.8058 2.16663 15.4167 2.16663C17.0275 2.16663 18.3333 3.47246 18.3333 5.08329Z" stroke="white" stroke-width="1.25"/>
<path id="Vector_3" d="M17.5013 12.1666H13.3966C12.6948 12.1666 12.1435 12.753 11.8342 13.3726C11.4982 14.0459 10.8254 14.6666 9.58464 14.6666C8.34389 14.6666 7.67108 14.0459 7.33509 13.3726C7.02582 12.753 6.47444 12.1666 5.77269 12.1666H1.66797" stroke="white" stroke-width="1.25" stroke-linejoin="round"/>
</g>
</svg>
